<?xml version="1.0" standalone="no"?>
<!DOCTYPE svg PUBLIC "-//W3C//DTD SVG 20010904//EN"
 "http://www.w3.org/TR/2001/REC-SVG-20010904/DTD/svg10.dtd">
<svg version="1.0" xmlns="http://www.w3.org/2000/svg"
 width="62.000000pt" height="56.000000pt" viewBox="0 0 62.000000 56.000000"
 preserveAspectRatio="xMidYMid meet">

<g transform="translate(0.000000,56.000000) scale(0.100000,-0.100000)"
fill="#000000" stroke="none">
<path d="M372 398 c-12 -6 -25 -22 -28 -35 -6 -20 -11 -23 -32 -18 -14 3 -39
16 -55 27 -35 25 -47 14 -47 -42 0 -37 32 -100 50 -100 6 0 8 -4 5 -10 -3 -5
-15 -10 -25 -10 -33 0 -32 -18 1 -36 43 -22 109 -14 158 20 45 32 59 54 70
121 5 28 13 61 17 74 6 21 5 22 -15 12 -15 -8 -27 -9 -40 -1 -24 12 -29 12
-59 -2z m78 -66 c0 -82 -58 -142 -144 -149 l-51 -4 23 19 c23 21 29 42 12 42
-23 0 -60 53 -60 86 0 19 1 34 3 34 1 0 20 -9 42 -20 56 -28 85 -27 85 5 0 31
34 47 68 32 16 -8 22 -19 22 -45z"/>
</g>
</svg>
